<?xml version="1.0" encoding="UTF-8"?><svg id="Layer_2" xmlns="http://www.w3.org/2000/svg" xmlns:xlink="http://www.w3.org/1999/xlink" viewBox="0 0 416.16 46.44"><defs><style>.cls-1{fill:url(#linear-gradient);}.cls-2{clip-path:url(#clippath);}.cls-3,.cls-4{fill:#fff;}.cls-5{clip-rule:evenodd;fill:none;}.cls-6{clip-path:url(#clippath-1);}.cls-7{fill:url(#linear-gradient-2);}.cls-4{fill-rule:evenodd;}</style><clipPath id="clippath"><path class="cls-5" d="m131.46,9.96h23.94V.63h-23.94c-5.99,0-11.12,3.93-12.93,9.33-.45,1.35-.7,2.8-.7,4.3s.25,2.94.7,4.3c1.81,5.41,6.93,9.33,12.93,9.33h11.08c2.34,0,4.3,1.95,4.3,4.3s-1.95,4.3-4.3,4.3h-42.29v9.33h42.29c6,0,11.12-3.93,12.93-9.33.45-1.35.7-2.8.7-4.3s-.25-2.94-.7-4.3c-1.81-5.41-6.93-9.33-12.93-9.33h-11.08c-2.34,0-4.3-1.95-4.3-4.3s1.95-4.3,4.3-4.3"/></clipPath><linearGradient id="linear-gradient" x1="128.2" y1=".63" x2="128.21" y2="45.82" gradientUnits="userSpaceOnUse"><stop offset="0" stop-color="#8b0100"/><stop offset=".5" stop-color="#ef0000"/><stop offset="1" stop-color="#8b0100"/></linearGradient><clipPath id="clippath-1"><path class="cls-5" d="m50.05.63L8.96,45.81h6.41L56.46.63h-6.41m10.58,0L19.54,45.81h8.18L68.82.63h-8.18Zm13.75,27.26h-10.7l-8.35,9.33h19.05v8.59h9.33V.63h-10.62l-16.17,17.78-24.93,27.4h11.23l12.33-13.49,18.83-20.77v16.34ZM4.78,45.81L45.88.63h-4.78L0,45.81h4.78Zm91.75,0v-17.92h24.57c-2.69-2.04-4.78-4.88-5.9-8.22-.12-.37-.23-.74-.33-1.11h-18.35v-8.59h18.35c.1-.37.21-.74.33-1.11,1.12-3.34,3.21-6.18,5.9-8.22h-33.91v45.18h9.33Z"/></clipPath><linearGradient id="linear-gradient-2" x1="60.55" y1=".62" x2="60.56" y2="45.83" xlink:href="#linear-gradient"/></defs><g id="Layer_1-2"><g><g class="cls-2"><rect class="cls-1" x="100.24" y=".63" width="55.92" height="45.18"/></g><g class="cls-6"><rect class="cls-7" y=".63" width="121.1" height="45.18"/></g><path class="cls-4" d="m196.89,6.36l3.96,8.29h-9.06l3.97-8.29h1.13Zm8.96,18.41h8.55L202.61.99h-12.59l-11.79,23.78h8.56l2.26-3.96h14.52l2.27,3.96Zm30.48-6.19h-11.96V7.12h11.96c1.57,0,2.64.41,3.2,1.24.55.82.83,2.33.83,4.53s-.28,3.69-.83,4.49c-.56.79-1.63,1.19-3.2,1.19ZM217.04.96v23.77h20.51c4.2,0,6.96-.83,8.29-2.5,1.22-1.53,1.83-4.65,1.83-9.35s-.62-7.88-1.86-9.42c-1.34-1.67-4.09-2.5-8.26-2.5h-20.51Zm32.41.03l12.01,23.78h11.12l12.03-23.78h-8.26l-9,17.52h-.67l-8.99-17.52h-8.25Zm44.68,13.66l3.97-8.29h1.13l3.96,8.29h-9.06Zm-1.76-13.66l-11.79,23.78h8.56l2.26-3.96h14.52l2.27,3.96h8.55l-11.79-23.78h-12.59Zm63.79,11.87c0,5.68.72,9.14,2.16,10.39,1.42,1.24,5.55,1.86,12.39,1.86s11.04-.57,12.62-1.7c1.33-.95,1.99-3.55,1.99-7.79h-7.32c0,1.44-.4,2.35-1.2,2.72-.82.4-2.85.6-6.09.6-3.57,0-5.67-.28-6.29-.83-.62-.56-.93-2.3-.93-5.23s.31-4.71.93-5.26c.63-.56,2.72-.84,6.29-.84,3.2,0,5.25.23,6.16.7.73.38,1.1,1.25,1.1,2.64h7.35c0-4.22-.69-6.82-2.06-7.8-1.57-1.13-5.76-1.7-12.55-1.7s-10.99.64-12.49,1.94c-1.38,1.19-2.06,4.62-2.06,10.29ZM390.52.96v23.81h25.64v-5.76h-18.32v-3.26h17.48v-5.73h-17.48v-3.3h18.32V.96h-25.64Zm-63.93,5.85v17.99h-7.33V1.04h11.99l12.52,17.58c.13.18.29.43.3.44V1.04h7.33v23.77h-11.99l-12.55-17.61-.27-.38Z"/><path class="cls-4" d="m316.64,38.83h7.76c.4,0,.93-.05,1.27-.29.47-.35.55-1.07.55-1.61s-.09-1.27-.57-1.63c-.32-.24-.87-.28-1.25-.28h-7.76v3.81Zm92.87-.73c1.22,0,4.09,0,5.2.5,1.19.54,1.45,1.88,1.45,3.06,0,1.32-.44,2.48-1.72,3.01-1.3.55-3.91.56-5.32.56s-4.41-.06-5.62-.98c-.91-.69-1.03-2.25-1.03-3.29v-.23h2.2v.23c0,.55.06,1.54.61,1.85.67.38,3.08.39,3.85.39,1.03,0,3.08.02,4.05-.29.59-.19.77-.67.77-1.25,0-.45-.07-1.06-.55-1.26-.71-.29-3.11-.27-3.9-.27-1.54,0-4.2-.09-5.51-1.01-.92-.64-1.15-1.77-1.15-2.82,0-1.14.29-2.34,1.4-2.87,1.25-.6,3.89-.62,5.26-.62s4.06.07,5.25.98c.9.69,1.06,2.05,1.06,3.1v.23h-2.16v-.23c0-.55-.08-1.39-.64-1.68-.7-.36-2.72-.36-3.51-.36-.91,0-2.08-.04-2.97.07-.85.1-1.49.45-1.49,1.38,0,.62.2,1.13.78,1.4.84.39,2.77.4,3.68.4Zm-23.02-3.08v2.91h9.06v2.03h-9.06v3.08h9.38v2.03h-11.58v-12.07h11.58v2.03h-9.38Zm-20.21,4.02c0,.72.02,3.09.6,3.61.59.53,3.24.55,4,.55s3.19,0,3.85-.33c.64-.32.7-1.47.7-2.08v-.23h2.2v.23c0,1.17-.13,2.98-1.24,3.68-1.17.74-4.16.76-5.5.76-1.44,0-4.44-.06-5.58-1.08-1.13-1.01-1.21-3.72-1.21-5.11s.08-4.12,1.21-5.14c1.13-1.03,4.16-1.08,5.59-1.08,1.33,0,4.35.02,5.5.75,1.11.7,1.25,2.52,1.25,3.69v.23h-2.2v-.23c0-.56-.05-1.74-.63-2.05-.72-.35-3.11-.35-3.92-.35-.75,0-3.42.01-4,.54-.58.52-.6,2.92-.6,3.64Zm-8.91,6.02h-2.2v-12.07h2.2v12.07Zm-15.02-2.05l5.4-10.02h2.33l-6.57,12.07h-2.33l-6.58-12.07h2.35l5.4,10.02Zm-15.16-3.13c.24.14.46.31.64.52.39.45.56.99.56,1.58v3.08h-2.18v-3.08c0-.34-.18-.58-.44-.77-.36-.24-.78-.33-1.21-.33h-7.93v4.19h-2.2v-12.07h10.65c.98,0,1.84.31,2.46,1.09.64.81.84,1.83.84,2.84,0,.74-.08,1.64-.49,2.28-.18.29-.43.51-.71.68Zm-29.14-4.87v2.91h9.06v2.03h-9.06v3.08h9.38v2.03h-11.58v-12.07h11.58v2.03h-9.38Zm-14.99,3.08c1.22,0,4.09,0,5.2.5,1.19.54,1.45,1.88,1.45,3.06,0,1.32-.44,2.48-1.72,3.01-1.3.55-3.91.56-5.32.56s-4.41-.06-5.62-.98c-.91-.69-1.02-2.25-1.02-3.29v-.23h2.2v.23c0,.55.06,1.54.61,1.85.67.38,3.07.39,3.85.39,1.03,0,3.08.02,4.05-.29.59-.19.77-.67.77-1.25,0-.45-.07-1.06-.55-1.26-.71-.29-3.11-.27-3.9-.27-1.54,0-4.2-.09-5.51-1.01-.92-.64-1.15-1.77-1.15-2.82,0-1.14.29-2.34,1.41-2.87,1.25-.6,3.89-.62,5.26-.62s4.06.07,5.25.98c.9.69,1.06,2.05,1.06,3.1v.23h-2.16v-.23c0-.55-.08-1.39-.64-1.68-.7-.36-2.72-.36-3.51-.36-.91,0-2.08-.04-2.97.07-.85.1-1.49.45-1.49,1.38,0,.62.2,1.13.78,1.4.84.39,2.77.4,3.68.4Zm-26.09-3.08v10.04h-2.2v-10.04h-5.21v-2.03h12.6v2.03h-5.19Zm-23.6,0v2.91h9.06v2.03h-9.06v3.08h9.38v2.03h-11.58v-12.07h11.58v2.03h-9.38Zm-18.42,0v2.91h9.06v2.03h-9.06v3.08h9.38v2.03h-11.58v-12.07h11.58v2.03h-9.38Zm-16.59,8.02h8.91v2.03h-11.09v-12.07h2.18v10.04Zm-17.93-2.82v4.85h-2.18v-12.07h11.24v2.03h-9.06v3.16h8.72v2.03h-8.72Z"/><rect class="cls-3" x="166" width="2.16" height="46.44"/></g></g></svg>